<?xml version="1.0" encoding="utf-8"?>
<!-- Generator: Adobe Illustrator 25.0.0, SVG Export Plug-In . SVG Version: 6.00 Build 0)  -->
<svg version="1.0" id="Layer_1" xmlns="http://www.w3.org/2000/svg" xmlns:xlink="http://www.w3.org/1999/xlink" x="0px" y="0px"
	 viewBox="0 0 600.2 600" style="enable-background:new 0 0 600.2 600;" xml:space="preserve">
<style type="text/css">
	.st0{fill:none;}
	.st1{fill:none;stroke:#231F20;stroke-width:0.5;}
	.st2{fill:#BDCCD4;}
	.st3{fill:#7AC943;}
	.st4{fill:#FF7BAC;}
	.st5{fill:#3FA9F5;}
	.st6{fill:#FF931E;}
	.st7{fill:#FF1D25;}
	.st8{fill:url(#Burlap_2);}
</style>
<pattern  x="150.05" y="150" width="72" height="72" patternUnits="userSpaceOnUse" id="Burlap_2" viewBox="11.67 -83 72 72" style="overflow:visible;">
	<g>
		<rect x="11.67" y="-83" class="st0" width="72" height="72"/>
		<line class="st1" x1="21.33" y1="-77.33" x2="21.33" y2="-62.67"/>
		<line class="st1" x1="23.83" y1="-74.33" x2="23.83" y2="-59.67"/>
		<line class="st1" x1="20.17" y1="-64.67" x2="20.17" y2="-50"/>
		<line class="st1" x1="27.5" y1="-64.33" x2="27.5" y2="-49.67"/>
		<line class="st1" x1="17.83" y1="-71.33" x2="17.83" y2="-56.67"/>
		<line class="st1" x1="29.83" y1="-74.33" x2="29.83" y2="-59.67"/>
		<line class="st1" x1="35.33" y1="-74.33" x2="35.33" y2="-59.67"/>
		<line class="st1" x1="36.67" y1="-70.67" x2="36.67" y2="-56"/>
		<line class="st1" x1="32.83" y1="-79.83" x2="32.83" y2="-65.17"/>
		<line class="st1" x1="26.33" y1="-77.83" x2="26.33" y2="-63.17"/>
		<line class="st1" x1="24.67" y1="-90.17" x2="24.67" y2="-75.5"/>
		<line class="st1" x1="22" y1="-92.5" x2="22" y2="-77.83"/>
		<line class="st1" x1="12.83" y1="-72" x2="27.5" y2="-72"/>
		<line class="st1" x1="8.17" y1="-76" x2="22.83" y2="-76"/>
		<line class="st1" x1="6.5" y1="-69.33" x2="21.17" y2="-69.33"/>
		<line class="st1" x1="24.83" y1="-75.67" x2="39.5" y2="-75.67"/>
		<line class="st1" x1="19.67" y1="-73.83" x2="34.33" y2="-73.83"/>
		<line class="st1" x1="23.33" y1="-65.66" x2="38" y2="-65.66"/>
		<line class="st1" x1="16.67" y1="-68.17" x2="31.33" y2="-68.17"/>
		<line class="st1" x1="50.17" y1="-73" x2="50.17" y2="-58.33"/>
		<line class="st1" x1="47.67" y1="-70" x2="47.67" y2="-55.33"/>
		<line class="st1" x1="53.67" y1="-67" x2="53.67" y2="-52.33"/>
		<line class="st1" x1="55" y1="-59.67" x2="55" y2="-45"/>
		<line class="st1" x1="56.33" y1="-67" x2="56.33" y2="-52.33"/>
		<line class="st1" x1="41.67" y1="-70" x2="41.67" y2="-55.33"/>
		<line class="st1" x1="31.5" y1="-66.67" x2="31.5" y2="-52"/>
		<line class="st1" x1="40" y1="-76.5" x2="40" y2="-61.83"/>
		<line class="st1" x1="38.33" y1="-79.83" x2="38.33" y2="-65.17"/>
		<line class="st1" x1="45.17" y1="-74.83" x2="45.17" y2="-60.17"/>
		<line class="st1" x1="53.67" y1="-68.33" x2="39" y2="-68.33"/>
		<line class="st1" x1="45.33" y1="-70.33" x2="30.67" y2="-70.33"/>
		<line class="st1" x1="54.17" y1="-64.83" x2="39.5" y2="-64.83"/>
		<line class="st1" x1="48.5" y1="-60.99" x2="33.83" y2="-60.99"/>
		<line class="st1" x1="57.17" y1="-62.83" x2="42.5" y2="-62.83"/>
		<line class="st1" x1="75" y1="-86.67" x2="75" y2="-72"/>
		<line class="st1" x1="82.51" y1="-81.83" x2="82.51" y2="-67.17"/>
		<line class="st1" x1="77.83" y1="-81.83" x2="77.83" y2="-67.17"/>
		<line class="st1" x1="70" y1="-81.83" x2="70" y2="-67.17"/>
		<line class="st1" x1="72.5" y1="-87.33" x2="72.5" y2="-72.67"/>
		<line class="st1" x1="49.17" y1="-86.67" x2="49.17" y2="-72"/>
		<line class="st1" x1="80.33" y1="-86.67" x2="80.33" y2="-72"/>
		<line class="st1" x1="87.5" y1="-80.17" x2="72.83" y2="-80.17"/>
		<line class="st1" x1="86" y1="-77.67" x2="71.33" y2="-77.67"/>
		<line class="st1" x1="82" y1="-73.16" x2="67.33" y2="-73.16"/>
		<line class="st1" x1="74" y1="-74.49" x2="59.33" y2="-74.49"/>
		<line class="st1" x1="91" y1="-74.67" x2="76.33" y2="-74.67"/>
		<line class="st1" x1="53.17" y1="-80.5" x2="53.17" y2="-65.83"/>
		<line class="st1" x1="54.83" y1="-88.5" x2="54.83" y2="-73.83"/>
		<line class="st1" x1="57.67" y1="-77.5" x2="57.67" y2="-62.83"/>
		<line class="st1" x1="51.67" y1="-74.5" x2="51.67" y2="-59.83"/>
		<line class="st1" x1="64.33" y1="-78.17" x2="64.33" y2="-63.5"/>
		<line class="st1" x1="73.83" y1="-74.17" x2="73.83" y2="-59.5"/>
		<line class="st1" x1="66.66" y1="-83" x2="66.66" y2="-68.33"/>
		<line class="st1" x1="61.83" y1="-82" x2="61.83" y2="-67.33"/>
		<line class="st1" x1="51.5" y1="-80.67" x2="66.16" y2="-80.67"/>
		<line class="st1" x1="58.67" y1="-78.83" x2="73.33" y2="-78.83"/>
		<line class="st1" x1="50.33" y1="-77.17" x2="65" y2="-77.17"/>
		<line class="st1" x1="51.17" y1="-72.33" x2="65.83" y2="-72.33"/>
		<line class="st1" x1="56.83" y1="-67.49" x2="71.5" y2="-67.49"/>
		<line class="st1" x1="60.5" y1="-69.49" x2="75.17" y2="-69.49"/>
		<line class="st1" x1="48.17" y1="-70.33" x2="62.83" y2="-70.33"/>
		<line class="st1" x1="43.17" y1="-81.33" x2="43.17" y2="-66.67"/>
		<line class="st1" x1="41.5" y1="-82" x2="41.5" y2="-67.33"/>
		<line class="st1" x1="35.5" y1="-81.33" x2="35.5" y2="-66.67"/>
		<line class="st1" x1="28.5" y1="-87.33" x2="28.5" y2="-72.67"/>
		<line class="st1" x1="13.67" y1="-44.67" x2="13.67" y2="-30"/>
		<line class="st1" x1="13.17" y1="-61.17" x2="13.17" y2="-46.5"/>
		<line class="st1" x1="13.5" y1="-87.5" x2="13.5" y2="-72.83"/>
		<line class="st1" x1="18.5" y1="-89.5" x2="18.5" y2="-74.83"/>
		<line class="st1" x1="16" y1="-84.5" x2="16" y2="-69.83"/>
		<line class="st1" x1="14.33" y1="-73.17" x2="14.33" y2="-58.5"/>
		<line class="st1" x1="12.33" y1="-75.67" x2="12.33" y2="-61"/>
		<line class="st1" x1="10" y1="-82.83" x2="24.67" y2="-82.83"/>
		<line class="st1" x1="18.33" y1="-81.17" x2="33" y2="-81.17"/>
		<line class="st1" x1="12.83" y1="-78.67" x2="27.5" y2="-78.67"/>
		<line class="st1" x1="34.83" y1="-78" x2="49.5" y2="-78"/>
		<line class="st1" x1="29.83" y1="-79.33" x2="44.5" y2="-79.33"/>
		<line class="st1" x1="31.83" y1="-82" x2="46.5" y2="-82"/>
		<line class="st1" x1="37.16" y1="-73.67" x2="51.83" y2="-73.67"/>
		<line class="st1" x1="53.33" y1="-58.83" x2="38.67" y2="-58.83"/>
		<line class="st1" x1="57.33" y1="-56.83" x2="42.67" y2="-56.83"/>
		<line class="st1" x1="51.67" y1="-54.49" x2="37" y2="-54.49"/>
		<line class="st1" x1="29.83" y1="-48.67" x2="29.83" y2="-34"/>
		<line class="st1" x1="33.33" y1="-42.67" x2="33.33" y2="-28"/>
		<line class="st1" x1="27.67" y1="-46.33" x2="13" y2="-46.33"/>
		<line class="st1" x1="38.67" y1="-42.33" x2="24" y2="-42.33"/>
		<line class="st1" x1="33.83" y1="-40.5" x2="19.17" y2="-40.5"/>
		<line class="st1" x1="36.83" y1="-38.5" x2="22.17" y2="-38.5"/>
		<line class="st1" x1="49.67" y1="-57.5" x2="49.67" y2="-42.83"/>
		<line class="st1" x1="51" y1="-51.67" x2="51" y2="-37"/>
		<line class="st1" x1="34.83" y1="-56.17" x2="34.83" y2="-41.5"/>
		<line class="st1" x1="38" y1="-61.5" x2="38" y2="-46.83"/>
		<line class="st1" x1="43.33" y1="-53.17" x2="43.33" y2="-38.5"/>
		<line class="st1" x1="46.33" y1="-58.67" x2="46.33" y2="-44"/>
		<line class="st1" x1="44.67" y1="-59" x2="44.67" y2="-44.33"/>
		<line class="st1" x1="39.83" y1="-56.67" x2="39.83" y2="-42"/>
		<line class="st1" x1="36.5" y1="-43.16" x2="51.17" y2="-43.16"/>
		<line class="st1" x1="39.17" y1="-41.83" x2="53.83" y2="-41.83"/>
		<line class="st1" x1="41.83" y1="-44.49" x2="56.5" y2="-44.49"/>
		<line class="st1" x1="41.83" y1="-49.83" x2="56.5" y2="-49.83"/>
		<line class="st1" x1="44.5" y1="-47.16" x2="59.16" y2="-47.16"/>
		<line class="st1" x1="57.83" y1="-49.83" x2="72.5" y2="-49.83"/>
		<line class="st1" x1="46.5" y1="-52.16" x2="61.16" y2="-52.16"/>
		<line class="st1" x1="73.16" y1="-66.49" x2="87.83" y2="-66.49"/>
		<line class="st1" x1="57.16" y1="-59.49" x2="71.83" y2="-59.49"/>
		<line class="st1" x1="55.16" y1="-61.83" x2="69.83" y2="-61.83"/>
		<line class="st1" x1="27.83" y1="-46" x2="42.5" y2="-46"/>
		<line class="st1" x1="28.16" y1="-48" x2="42.83" y2="-48"/>
		<line class="st1" x1="42" y1="-37.16" x2="27.33" y2="-37.16"/>
		<line class="st1" x1="33.66" y1="-62.17" x2="33.66" y2="-47.5"/>
		<line class="st1" x1="31.5" y1="-65.67" x2="31.5" y2="-51"/>
		<line class="st1" x1="22.5" y1="-57" x2="37.17" y2="-57"/>
		<line class="st1" x1="15.5" y1="-58.33" x2="30.17" y2="-58.33"/>
		<line class="st1" x1="17.16" y1="-60.33" x2="31.83" y2="-60.33"/>
		<line class="st1" x1="15.83" y1="-63" x2="30.5" y2="-63"/>
		<line class="st1" x1="25.17" y1="-63" x2="39.83" y2="-63"/>
		<line class="st1" x1="18.67" y1="-39.33" x2="18.67" y2="-24.67"/>
		<line class="st1" x1="21.17" y1="-36.33" x2="21.17" y2="-21.67"/>
		<line class="st1" x1="17.5" y1="-26.67" x2="17.5" y2="-12"/>
		<line class="st1" x1="14.5" y1="-29" x2="14.5" y2="-14.33"/>
		<line class="st1" x1="24.83" y1="-26.33" x2="24.83" y2="-11.67"/>
		<line class="st1" x1="27.17" y1="-36.33" x2="27.17" y2="-21.67"/>
		<line class="st1" x1="36.67" y1="-44.67" x2="36.67" y2="-30"/>
		<line class="st1" x1="70.16" y1="-23" x2="70.16" y2="-8.33"/>
		<line class="st1" x1="73" y1="-35.67" x2="73" y2="-21"/>
		<line class="st1" x1="69.66" y1="-19" x2="55" y2="-19"/>
		<line class="st1" x1="74.16" y1="-14.83" x2="59.5" y2="-14.83"/>
		<line class="st1" x1="71.5" y1="-12.83" x2="56.83" y2="-12.83"/>
		<line class="st1" x1="75.5" y1="-16.5" x2="60.83" y2="-16.5"/>
		<line class="st1" x1="75.16" y1="-30.5" x2="75.16" y2="-15.83"/>
		<line class="st1" x1="71.66" y1="-24.5" x2="71.66" y2="-9.83"/>
		<line class="st1" x1="60.33" y1="-35.17" x2="60.33" y2="-20.5"/>
		<line class="st1" x1="58.66" y1="-32.5" x2="58.66" y2="-17.83"/>
		<line class="st1" x1="56.66" y1="-26.67" x2="56.66" y2="-12"/>
		<line class="st1" x1="78.83" y1="-28.67" x2="78.83" y2="-14"/>
		<line class="st1" x1="80.5" y1="-34.67" x2="80.5" y2="-20"/>
		<line class="st1" x1="82.83" y1="-37" x2="82.83" y2="-22.33"/>
		<line class="st1" x1="76.83" y1="-17.49" x2="91.5" y2="-17.49"/>
		<line class="st1" x1="73.16" y1="-12.83" x2="87.83" y2="-12.83"/>
		<line class="st1" x1="78.5" y1="-14.83" x2="93.16" y2="-14.83"/>
		<line class="st1" x1="73.83" y1="-19.83" x2="88.5" y2="-19.83"/>
		<line class="st1" x1="70.83" y1="-26.49" x2="85.5" y2="-26.49"/>
		<line class="st1" x1="78.5" y1="-28.49" x2="93.16" y2="-28.49"/>
		<line class="st1" x1="75.16" y1="-24.16" x2="89.83" y2="-24.16"/>
		<line class="st1" x1="77" y1="-19" x2="77" y2="-4.33"/>
		<line class="st1" x1="81.33" y1="-21.67" x2="81.33" y2="-7"/>
		<line class="st1" x1="15.17" y1="-34.67" x2="29.83" y2="-34.67"/>
		<line class="st1" x1="19.83" y1="-15.33" x2="34.5" y2="-15.33"/>
		<line class="st1" x1="16.67" y1="-32.17" x2="31.33" y2="-32.17"/>
		<line class="st1" x1="20.67" y1="-27.66" x2="35.33" y2="-27.66"/>
		<line class="st1" x1="31.67" y1="-30.66" x2="46.33" y2="-30.66"/>
		<line class="st1" x1="12.5" y1="-30.5" x2="27.17" y2="-30.5"/>
		<line class="st1" x1="29.33" y1="-31" x2="29.33" y2="-16.33"/>
		<line class="st1" x1="44" y1="-33.33" x2="29.33" y2="-33.33"/>
		<line class="st1" x1="45.83" y1="-22.99" x2="31.17" y2="-22.99"/>
		<line class="st1" x1="47.5" y1="-21.33" x2="32.83" y2="-21.33"/>
		<line class="st1" x1="46" y1="-26.33" x2="31.33" y2="-26.33"/>
		<line class="st1" x1="50.67" y1="-28.99" x2="36" y2="-28.99"/>
		<line class="st1" x1="31" y1="-24.17" x2="31" y2="-9.5"/>
		<line class="st1" x1="24.17" y1="-45" x2="24.17" y2="-30.33"/>
		<line class="st1" x1="22.5" y1="-50.33" x2="22.5" y2="-35.67"/>
		<line class="st1" x1="25.5" y1="-53.33" x2="25.5" y2="-38.67"/>
		<line class="st1" x1="20.17" y1="-51.67" x2="20.17" y2="-37"/>
		<line class="st1" x1="16.5" y1="-50.67" x2="16.5" y2="-36"/>
		<line class="st1" x1="18.5" y1="-55.33" x2="18.5" y2="-40.67"/>
		<line class="st1" x1="19.83" y1="-19" x2="34.5" y2="-19"/>
		<line class="st1" x1="12.66" y1="-20.67" x2="27.33" y2="-20.67"/>
		<line class="st1" x1="14.5" y1="-22.33" x2="29.17" y2="-22.33"/>
		<line class="st1" x1="41.17" y1="-33" x2="41.17" y2="-18.33"/>
		<line class="st1" x1="38.16" y1="-40" x2="38.16" y2="-25.33"/>
		<line class="st1" x1="37.5" y1="-23.33" x2="37.5" y2="-8.67"/>
		<line class="st1" x1="44.83" y1="-23" x2="44.83" y2="-8.33"/>
		<line class="st1" x1="35.17" y1="-30" x2="35.17" y2="-15.33"/>
		<line class="st1" x1="47.17" y1="-33" x2="47.17" y2="-18.33"/>
		<line class="st1" x1="42.67" y1="-24.17" x2="42.67" y2="-9.5"/>
		<line class="st1" x1="39.67" y1="-28.17" x2="39.67" y2="-13.5"/>
		<line class="st1" x1="39.83" y1="-12" x2="54.5" y2="-12"/>
		<line class="st1" x1="41.83" y1="-14.33" x2="56.5" y2="-14.33"/>
		<line class="st1" x1="48.83" y1="-25.33" x2="48.83" y2="-10.67"/>
		<line class="st1" x1="44.17" y1="-37.67" x2="44.17" y2="-23"/>
		<line class="st1" x1="66.66" y1="-25.33" x2="66.66" y2="-10.67"/>
		<line class="st1" x1="59.66" y1="-17.33" x2="59.66" y2="-2.67"/>
		<line class="st1" x1="45.83" y1="-42.33" x2="45.83" y2="-27.67"/>
		<line class="st1" x1="39.83" y1="-15.67" x2="54.5" y2="-15.67"/>
		<line class="st1" x1="32.83" y1="-17" x2="47.5" y2="-17"/>
		<line class="st1" x1="24.83" y1="-13.67" x2="39.5" y2="-13.67"/>
		<line class="st1" x1="19.5" y1="-12.33" x2="34.17" y2="-12.33"/>
		<line class="st1" x1="34.5" y1="-19" x2="49.17" y2="-19"/>
		<line class="st1" x1="13.17" y1="-25" x2="27.83" y2="-25"/>
		<line class="st1" x1="22.5" y1="-25" x2="37.17" y2="-25"/>
		<line class="st1" x1="28.17" y1="-52.16" x2="42.83" y2="-52.16"/>
		<line class="st1" x1="19.5" y1="-55" x2="34.17" y2="-55"/>
		<line class="st1" x1="18.33" y1="-49.67" x2="33" y2="-49.67"/>
		<line class="st1" x1="11" y1="-52" x2="25.67" y2="-52"/>
		<line class="st1" x1="58.83" y1="-65.67" x2="58.83" y2="-51"/>
		<line class="st1" x1="62.5" y1="-55.67" x2="62.5" y2="-41"/>
		<line class="st1" x1="64.49" y1="-63" x2="64.49" y2="-48.33"/>
		<line class="st1" x1="70.33" y1="-65.67" x2="70.33" y2="-51"/>
		<line class="st1" x1="71.66" y1="-62" x2="71.66" y2="-47.33"/>
		<line class="st1" x1="67.83" y1="-71.17" x2="67.83" y2="-56.5"/>
		<line class="st1" x1="60.33" y1="-69.17" x2="60.33" y2="-54.5"/>
		<line class="st1" x1="58.33" y1="-56.99" x2="73" y2="-56.99"/>
		<line class="st1" x1="46.5" y1="-86.67" x2="46.5" y2="-72"/>
		<line class="st1" x1="52" y1="-34.67" x2="52" y2="-20"/>
		<line class="st1" x1="53.33" y1="-27.33" x2="53.33" y2="-12.67"/>
		<line class="st1" x1="50" y1="-37.67" x2="50" y2="-23"/>
		<line class="st1" x1="54.67" y1="-34.67" x2="54.67" y2="-20"/>
		<line class="st1" x1="76.67" y1="-61.33" x2="76.67" y2="-46.67"/>
		<line class="st1" x1="66.5" y1="-58" x2="66.5" y2="-43.33"/>
		<line class="st1" x1="75" y1="-67.83" x2="75" y2="-53.17"/>
		<line class="st1" x1="78.67" y1="-72.5" x2="78.67" y2="-57.83"/>
		<line class="st1" x1="80.17" y1="-70.33" x2="80.17" y2="-55.67"/>
		<line class="st1" x1="82.17" y1="-65.5" x2="82.17" y2="-50.83"/>
		<line class="st1" x1="88.67" y1="-59.67" x2="74" y2="-59.67"/>
		<line class="st1" x1="81.67" y1="-62.67" x2="67" y2="-62.67"/>
		<line class="st1" x1="76" y1="-65" x2="61.33" y2="-65"/>
		<line class="st1" x1="80.33" y1="-71.33" x2="65.67" y2="-71.33"/>
		<line class="st1" x1="89.17" y1="-56.17" x2="74.5" y2="-56.17"/>
		<line class="st1" x1="83.5" y1="-52.33" x2="68.83" y2="-52.33"/>
		<line class="st1" x1="92.17" y1="-54.17" x2="77.5" y2="-54.17"/>
		<line class="st1" x1="53.5" y1="-48.17" x2="53.5" y2="-33.5"/>
		<line class="st1" x1="56" y1="-45.17" x2="56" y2="-30.5"/>
		<line class="st1" x1="71.33" y1="-42.17" x2="71.33" y2="-27.5"/>
		<line class="st1" x1="58.5" y1="-48.67" x2="58.5" y2="-34"/>
		<line class="st1" x1="49.5" y1="-40" x2="64.17" y2="-40"/>
		<line class="st1" x1="55.17" y1="-35.16" x2="69.83" y2="-35.16"/>
		<line class="st1" x1="77.83" y1="-64.33" x2="92.5" y2="-64.33"/>
		<line class="st1" x1="88.33" y1="-50.16" x2="73.66" y2="-50.16"/>
		<line class="st1" x1="92.33" y1="-48.16" x2="77.66" y2="-48.16"/>
		<line class="st1" x1="86.67" y1="-45.83" x2="72" y2="-45.83"/>
		<line class="st1" x1="64.83" y1="-40" x2="64.83" y2="-25.33"/>
		<line class="st1" x1="68.33" y1="-34" x2="68.33" y2="-19.33"/>
		<line class="st1" x1="64.33" y1="-26.33" x2="64.33" y2="-11.67"/>
		<line class="st1" x1="62" y1="-28.67" x2="62" y2="-14"/>
		<line class="st1" x1="71.83" y1="-29.83" x2="57.17" y2="-29.83"/>
		<line class="st1" x1="63.83" y1="-32.5" x2="49.17" y2="-32.5"/>
		<line class="st1" x1="53.5" y1="-35.5" x2="38.83" y2="-35.5"/>
		<line class="st1" x1="63.66" y1="-51.17" x2="63.66" y2="-36.5"/>
		<line class="st1" x1="50.67" y1="-19.33" x2="50.67" y2="-4.67"/>
		<line class="st1" x1="76.66" y1="-36.17" x2="76.66" y2="-21.5"/>
		<line class="st1" x1="69.83" y1="-47.5" x2="69.83" y2="-32.83"/>
		<line class="st1" x1="73" y1="-52.83" x2="73" y2="-38.17"/>
		<line class="st1" x1="66.33" y1="-41.5" x2="66.33" y2="-26.83"/>
		<line class="st1" x1="78.33" y1="-44.5" x2="78.33" y2="-29.83"/>
		<line class="st1" x1="81.33" y1="-50" x2="81.33" y2="-35.33"/>
		<line class="st1" x1="79.66" y1="-50.33" x2="79.66" y2="-35.67"/>
		<line class="st1" x1="74.83" y1="-48" x2="74.83" y2="-33.33"/>
		<line class="st1" x1="71.5" y1="-34.49" x2="86.16" y2="-34.49"/>
		<line class="st1" x1="74.83" y1="-31.49" x2="89.5" y2="-31.49"/>
		<line class="st1" x1="76.83" y1="-35.83" x2="91.5" y2="-35.83"/>
		<line class="st1" x1="76.83" y1="-41.16" x2="91.5" y2="-41.16"/>
		<line class="st1" x1="79.5" y1="-38.49" x2="94.16" y2="-38.49"/>
		<line class="st1" x1="81.5" y1="-43.49" x2="96.16" y2="-43.49"/>
		<line class="st1" x1="49.83" y1="-21.16" x2="64.5" y2="-21.16"/>
		<line class="st1" x1="54.16" y1="-23.83" x2="68.83" y2="-23.83"/>
		<line class="st1" x1="53.5" y1="-28.49" x2="68.16" y2="-28.49"/>
		<line class="st1" x1="37.83" y1="-38.49" x2="52.5" y2="-38.49"/>
		<line class="st1" x1="62.83" y1="-37.33" x2="77.5" y2="-37.33"/>
		<line class="st1" x1="63.16" y1="-39.33" x2="77.83" y2="-39.33"/>
		<line class="st1" x1="68.66" y1="-53.5" x2="68.66" y2="-38.83"/>
		<line class="st1" x1="66.5" y1="-57" x2="66.5" y2="-42.33"/>
		<line class="st1" x1="60.16" y1="-51.33" x2="60.16" y2="-36.67"/>
		<line class="st1" x1="57.5" y1="-45.67" x2="72.16" y2="-45.67"/>
		<line class="st1" x1="60.16" y1="-54.33" x2="74.83" y2="-54.33"/>
		<line class="st1" x1="63.16" y1="-43.49" x2="77.83" y2="-43.49"/>
		<line class="st1" x1="80.16" y1="-76" x2="94.83" y2="-76"/>
		<line class="st1" x1="78.5" y1="-69.33" x2="93.16" y2="-69.33"/>
		<line class="st1" x1="15.5" y1="-80.17" x2="0.83" y2="-80.17"/>
		<line class="st1" x1="19" y1="-74.67" x2="4.33" y2="-74.67"/>
		<line class="st1" x1="1.16" y1="-66.49" x2="15.83" y2="-66.49"/>
		<line class="st1" x1="4.83" y1="-17.49" x2="19.5" y2="-17.49"/>
		<line class="st1" x1="1.16" y1="-12.83" x2="15.83" y2="-12.83"/>
		<line class="st1" x1="6.5" y1="-14.83" x2="21.17" y2="-14.83"/>
		<line class="st1" x1="1.83" y1="-19.83" x2="16.5" y2="-19.83"/>
		<line class="st1" x1="6.5" y1="-28.49" x2="21.17" y2="-28.49"/>
		<line class="st1" x1="3.16" y1="-24.16" x2="17.83" y2="-24.16"/>
		<line class="st1" x1="16.67" y1="-59.67" x2="2" y2="-59.67"/>
		<line class="st1" x1="17.17" y1="-56.17" x2="2.5" y2="-56.17"/>
		<line class="st1" x1="20.17" y1="-54.17" x2="5.5" y2="-54.17"/>
		<line class="st1" x1="5.83" y1="-64.33" x2="20.5" y2="-64.33"/>
		<line class="st1" x1="16.33" y1="-50.16" x2="1.67" y2="-50.16"/>
		<line class="st1" x1="20.33" y1="-48.16" x2="5.67" y2="-48.16"/>
		<line class="st1" x1="14.67" y1="-45.83" x2="0" y2="-45.83"/>
		<line class="st1" x1="2.83" y1="-31.49" x2="17.5" y2="-31.49"/>
		<line class="st1" x1="4.83" y1="-35.83" x2="19.5" y2="-35.83"/>
		<line class="st1" x1="4.83" y1="-41.16" x2="19.5" y2="-41.16"/>
		<line class="st1" x1="7.5" y1="-38.49" x2="22.16" y2="-38.49"/>
		<line class="st1" x1="9.5" y1="-43.49" x2="24.16" y2="-43.49"/>
		<line class="st1" x1="70.16" y1="-95" x2="70.16" y2="-80.33"/>
		<line class="st1" x1="77" y1="-91" x2="77" y2="-76.33"/>
		<line class="st1" x1="81.33" y1="-93.67" x2="81.33" y2="-79"/>
		<line class="st1" x1="31" y1="-96.17" x2="31" y2="-81.5"/>
		<line class="st1" x1="37.5" y1="-95.33" x2="37.5" y2="-80.67"/>
		<line class="st1" x1="44.83" y1="-95" x2="44.83" y2="-80.33"/>
		<line class="st1" x1="42.67" y1="-96.17" x2="42.67" y2="-81.5"/>
		<line class="st1" x1="59.66" y1="-89.33" x2="59.66" y2="-74.67"/>
		<line class="st1" x1="50.67" y1="-91.33" x2="50.67" y2="-76.67"/>
		<line class="st1" x1="24.67" y1="-18.17" x2="24.67" y2="-3.5"/>
		<line class="st1" x1="22" y1="-20.5" x2="22" y2="-5.83"/>
		<line class="st1" x1="75" y1="-14.67" x2="75" y2="0"/>
		<line class="st1" x1="72.5" y1="-15.33" x2="72.5" y2="-0.67"/>
		<line class="st1" x1="49.17" y1="-14.67" x2="49.17" y2="0"/>
		<line class="st1" x1="80.33" y1="-14.67" x2="80.33" y2="0"/>
		<line class="st1" x1="54.83" y1="-16.5" x2="54.83" y2="-1.83"/>
		<line class="st1" x1="28.5" y1="-15.33" x2="28.5" y2="-0.67"/>
		<line class="st1" x1="13.5" y1="-15.5" x2="13.5" y2="-0.83"/>
		<line class="st1" x1="18.5" y1="-17.5" x2="18.5" y2="-2.83"/>
		<line class="st1" x1="46.5" y1="-14.67" x2="46.5" y2="0"/>
		<line class="st1" x1="70.16" y1="-23" x2="70.16" y2="-8.33"/>
		<line class="st1" x1="44.83" y1="-23" x2="44.83" y2="-8.33"/>
	</g>
</pattern>
<g>
	<rect x="0" class="st2" width="600" height="600"/>
	<path class="st3" d="M600,0v46.2c0,0-245.25,120.86-245.25,244.97C354.75,358,45.58,600,45.58,600H0V423.04
		c0,0,229.59-49.04,229.59-229.66c0-44.11,124.74-43.38,124.74-124.78c0-24.25,68.58-68.6,68.58-68.6H600z"/>
	<path class="st4" d="M0,123.42l117.39,117.39l285.5,285.5L476.58,600H330.59c0,0-177.57-82-177.57-177.57
		C153.03,368.33,0,269.41,0,269.41L0,123.42z"/>
	<path class="st5" d="M0,170.93v113.36c0,0,201.62-130.33,201.62-201.62c0-48.66,82.53-82.53,82.53-82.53H172L0,170.93z"/>
	<polygon class="st6" points="218.21,0.13 311.75,93.67 600.2,382.12 600.2,348.78 482.17,230.75 251.43,0 	"/>
	<path class="st7" d="M419.84,600H600V421.09c0,0-80.09,35.59-80.09,79.54C519.91,530,419.84,600,419.84,600z"/>
	<g>
		<g>
			<path class="st8" d="M299.67,324.39c-4.55-2.63-8.02-6.44-10.41-11.44c-2.39-4.99-3.59-10.99-3.59-17.99v-66.31
				c0-7.06,1.2-13.08,3.59-18.08c2.39-4.99,5.85-8.81,10.36-11.44c4.52-2.63,9.97-3.95,16.38-3.95c6.4,0,11.87,1.32,16.42,3.95
				c4.54,2.63,8,6.45,10.36,11.44c2.36,5,3.54,10.99,3.54,17.99v5.56H329.1v-5.56c0-3.53-0.51-6.55-1.53-9.06
				c-1.02-2.51-2.51-4.43-4.49-5.74c-1.97-1.31-4.34-1.97-7.09-1.97c-2.75,0-5.1,0.66-7.04,1.97c-1.94,1.32-3.44,3.23-4.49,5.74
				s-1.57,5.56-1.57,9.15v66.31c0,3.53,0.52,6.55,1.57,9.06c1.05,2.51,2.54,4.43,4.49,5.74c1.94,1.32,4.29,1.97,7.04,1.97
				c2.75,0,5.11-0.66,7.09-1.97c1.97-1.32,3.47-3.23,4.49-5.74c1.02-2.51,1.53-5.53,1.53-9.06v-5.56h17.23v5.56
				c0,7-1.18,13-3.54,17.99c-2.37,5-5.82,8.81-10.36,11.44c-4.55,2.63-10.02,3.95-16.42,3.95
				C309.66,328.34,304.22,327.02,299.67,324.39z"/>
			<path class="st8" d="M386.35,196.53h15.61l30.15,130.46h-18.3l-19.65-103.72L374.5,326.99h-18.3L386.35,196.53z M375.49,282.49
				h38.67v16.06h-38.67V282.49z"/>
			<path class="st8" d="M443.77,196.53h17.05v130.46h-17.05V196.53z M452.92,310.84h45.04v16.15h-45.04V310.84z"/>
			<path class="st8" d="M580.43,196.53h14.98v130.46H579.8v-98.79l1.53,5.74l-22.43,71.69h-10.95l-22.34-69.9l2.06-7.54v98.79
				h-16.24V196.53h15.61l26.38,81.92L580.43,196.53z"/>
		</g>
	</g>
	<g>
		<g>
			<path class="st8" d="M215.45,212.68H152.1v-16.15h63.35V212.68z M192.3,326.99h-17.05V207.21h17.05V326.99z"/>
			<path class="st8" d="M100.06,326.99H83.01V196.53h17.05V326.99z M131.73,270.83H91.71v-16.15h40.02V270.83z M143.13,326.99
				h-17.14V196.53h17.14V326.99z"/>
			<path class="st8" d="M56.18,212.68H9.08v-16.15h47.11V212.68z M56.18,326.99H9.08v-16.15h47.11V326.99z M56.18,270.29H13.56
				v-16.15h42.62V270.29z M65.07,326.99H48.02V196.53h17.05V326.99z"/>
		</g>
	</g>
	<g>
		<circle cx="547" cy="425" r="7"/>
		<circle cx="547" cy="367" r="7"/>
		<circle cx="577" cy="367" r="7"/>
		<circle cx="25" cy="395" r="7"/>
		<circle cx="51" cy="395" r="7"/>
		<circle cx="99" cy="395" r="7"/>
		<circle cx="125" cy="395" r="7"/>
		<circle cx="201" cy="395" r="7"/>
		<circle cx="25" cy="425" r="7"/>
		<circle cx="99" cy="367" r="7"/>
		<circle cx="51" cy="367" r="7"/>
		<circle cx="175" cy="367" r="7"/>
		<circle cx="473" cy="395" r="7"/>
		<circle cx="473" cy="425" r="7"/>
		<circle cx="473" cy="367" r="7"/>
		<circle cx="397" cy="367" r="7"/>
		<circle cx="353" cy="367" r="7"/>
		<circle cx="323" cy="367" r="7"/>
	</g>
</g>
</svg>
